<?xml version="1.0" standalone="no"?>
<!DOCTYPE svg PUBLIC "-//W3C//DTD SVG 20010904//EN"
 "http://www.w3.org/TR/2001/REC-SVG-20010904/DTD/svg10.dtd">
<svg version="1.0" xmlns="http://www.w3.org/2000/svg"
 width="500.000000pt" height="500.000000pt" viewBox="0 0 500.000000 500.000000"
 preserveAspectRatio="xMidYMid meet">
<metadata>
Created by potrace 1.16, written by Peter Selinger 2001-2019
</metadata>
<g transform="translate(0.000000,500.000000) scale(0.100000,-0.100000)"
fill="#000000" stroke="none">
<path d="M130 4400 l0 -390 190 0 190 0 -2 -487 -3 -488 -25 -3 c-34 -5 -191
-60 -207 -74 -31 -25 -10 -30 112 -26 69 2 125 1 125 -2 0 -7 -77 -43 -86 -40
-4 1 -11 -5 -15 -13 -5 -8 -21 -18 -36 -21 -36 -9 -172 -76 -193 -96 -9 -8
-53 -33 -98 -55 -72 -35 -81 -43 -82 -67 0 -20 5 -28 18 -28 16 -1 16 -1 -1
-11 -9 -5 -17 -19 -17 -30 0 -18 2 -18 23 -5 34 23 107 46 157 52 25 2 81 9
125 14 98 12 98 12 90 0 -3 -5 -16 -10 -28 -10 -12 0 -53 -11 -92 -24 -51 -18
-72 -21 -77 -13 -5 8 -8 6 -8 -5 0 -11 -11 -20 -28 -24 -15 -3 -47 -12 -71
-20 -25 -8 -53 -14 -63 -14 -17 0 -36 -25 -26 -35 2 -2 28 3 58 11 113 32 124
33 132 21 6 -9 8 -9 8 1 0 6 7 12 15 12 9 0 26 7 38 15 12 8 49 21 82 28 54
13 109 31 158 52 13 5 17 2 17 -14 0 -20 5 -21 93 -21 l92 0 -51 -29 c-29 -15
-69 -33 -90 -39 -22 -6 -88 -28 -149 -48 -183 -60 -193 -62 -206 -50 -9 8 -10
8 -5 -1 8 -14 -2 -19 -116 -59 -47 -16 -78 -32 -78 -40 0 -17 25 -12 119 22
60 23 64 23 77 7 10 -13 12 -13 9 -3 -4 11 11 21 50 37 31 13 65 23 77 23 18
0 14 -5 -20 -27 -23 -15 -42 -32 -42 -39 0 -16 -68 -35 -74 -20 -2 6 -5 4 -5
-5 -1 -15 -79 -49 -168 -74 -23 -6 -33 -35 -13 -35 6 0 69 20 140 44 117 40
133 43 177 34 113 -22 730 27 923 73 25 6 72 15 105 20 72 10 149 23 270 44
50 9 119 20 155 25 36 6 115 19 175 30 61 11 151 27 200 36 50 9 122 22 160
29 60 12 183 34 275 49 14 3 37 5 51 5 16 1 33 10 42 24 l15 24 -48 -1 c-26
-1 -46 -4 -44 -8 5 -8 -10 -13 -126 -32 -52 -9 -129 -23 -170 -31 -41 -8 -88
-17 -105 -19 -16 -3 -79 -14 -140 -25 -60 -12 -153 -28 -205 -37 -52 -8 -147
-24 -210 -35 -63 -11 -140 -24 -170 -29 -30 -5 -89 -14 -130 -21 -41 -6 -84
-13 -95 -14 -85 -9 -163 -20 -312 -41 -95 -13 -253 -29 -353 -34 -239 -13
-280 -3 -162 40 71 26 79 29 173 74 42 20 82 36 88 36 6 0 39 13 73 29 122 58
229 91 290 91 45 0 58 -3 58 -15 0 -18 31 -20 49 -2 15 15 -12 14 421 16 l370
1 0 49 0 50 263 4 c351 5 555 22 582 49 20 19 20 19 -50 14 -38 -4 -110 -11
-160 -17 -49 -6 -213 -13 -362 -16 l-273 -5 0 115 0 116 68 20 c37 11 117 34
177 51 61 18 155 47 210 65 55 19 127 41 160 50 33 8 137 40 230 70 94 29 247
77 340 106 131 40 175 58 192 78 30 34 29 45 -4 36 -67 -17 -264 -57 -323 -65
-89 -13 -168 -30 -350 -78 -85 -22 -191 -48 -235 -57 -44 -9 -107 -25 -140
-35 -70 -23 -296 -80 -314 -80 -7 0 -11 9 -9 22 3 23 45 41 188 79 41 11 104
31 140 44 87 31 151 52 230 74 36 10 116 37 179 60 63 22 122 41 132 41 16 0
411 130 529 174 25 10 53 20 63 23 20 6 23 31 4 38 -14 6 -114 -16 -322 -69
-288 -73 -512 -129 -590 -147 -77 -18 -163 -40 -311 -80 -39 -10 -102 -25
-140 -33 -38 -8 -77 -18 -86 -21 -15 -6 -18 -1 -18 28 0 41 -4 40 250 107 188
50 230 62 485 134 396 111 370 106 504 106 94 0 122 3 119 13 -3 6 -27 14 -54
17 l-49 5 50 13 c28 7 74 20 104 27 60 16 66 19 56 34 -11 19 -69 10 -320 -49
-55 -13 -153 -24 -250 -30 -249 -14 -465 -47 -635 -96 -100 -29 -235 -76 -247
-86 -10 -8 -13 8 -13 74 0 47 -5 89 -11 95 -8 8 -8 13 0 17 22 14 12 33 -14
28 -25 -4 -25 -4 -25 -121 l0 -117 -37 -18 c-59 -28 -119 -67 -181 -117 -32
-25 -66 -50 -77 -56 -27 -14 -184 -59 -325 -93 -63 -15 -213 -53 -334 -83
-120 -31 -239 -59 -265 -63 -25 -4 -63 -13 -83 -20 l-38 -13 0 529 0 530 670
0 670 0 0 -164 0 -163 25 5 c24 4 25 6 25 93 l0 89 174 0 c96 0 177 4 180 9 3
4 38 18 78 30 40 13 87 29 103 36 17 7 73 28 125 45 52 17 123 43 158 58 l62
26 0 263 0 263 -490 0 -490 0 0 -270 0 -270 -500 0 -500 0 0 315 0 315 -360 0
-360 0 0 -390z m2620 -731 c-36 -11 -112 -33 -170 -50 -58 -17 -139 -42 -180
-55 -42 -13 -82 -24 -90 -24 -8 0 -37 -8 -65 -19 -41 -16 -178 -58 -272 -86
-21 -6 -23 -3 -23 29 0 41 4 44 122 85 164 57 368 102 565 125 168 19 191 18
113 -5z m275 -144 c-104 -36 -200 -65 -213 -65 -13 0 -51 -11 -85 -24 -100
-38 -189 -68 -242 -82 -27 -7 -72 -20 -100 -30 -159 -56 -408 -134 -429 -134
-3 0 -6 20 -6 44 0 34 4 46 18 50 9 3 94 23 187 45 94 23 193 48 222 56 28 9
89 24 135 34 45 11 216 53 378 94 162 42 302 76 310 76 8 0 -70 -29 -175 -64z
m-1125 -194 c0 -26 -4 -30 -42 -39 -24 -6 -97 -24 -163 -41 -66 -17 -124 -31
-129 -31 -4 0 5 13 20 29 19 19 55 36 104 51 41 12 98 30 125 40 74 26 85 25
85 -9z m1061 -16 c-18 -8 -40 -15 -48 -15 -8 0 -35 -6 -61 -14 -26 -8 -110
-33 -187 -56 -77 -23 -157 -48 -178 -56 -20 -8 -54 -18 -75 -23 -20 -6 -88
-26 -151 -45 -104 -33 -115 -35 -126 -20 -11 15 -17 15 -76 -9 -103 -40 -111
-42 -107 -20 3 19 121 53 514 148 99 24 232 57 295 73 194 51 261 63 200 37z
m-1063 -97 l-3 -52 -105 -34 c-233 -73 -339 -100 -331 -83 21 50 54 111 64
120 7 5 55 19 107 31 52 12 122 30 155 40 55 17 88 26 108 29 4 0 7 -22 5 -51z
m-720 -58 c-20 -11 -74 -31 -120 -44 -45 -14 -123 -41 -173 -59 -79 -31 -266
-77 -309 -77 -9 0 -16 8 -16 19 0 14 13 24 47 35 26 9 56 16 68 16 25 0 446
103 485 119 44 17 56 11 18 -9z m291 -12 c-7 -13 -16 -30 -21 -38 -4 -8 -13
-26 -18 -40 -20 -50 -28 -55 -126 -81 -54 -14 -174 -49 -266 -77 -141 -44
-459 -132 -474 -132 -2 0 -4 26 -4 59 l0 58 72 32 c73 33 134 51 413 121 173
44 391 104 433 119 1 1 -3 -9 -9 -21z m429 -39 c-2 -16 -15 -26 -48 -36 -100
-31 -404 -112 -408 -108 -15 15 17 37 80 54 40 12 136 41 213 65 166 52 167
52 163 25z m2 -79 c0 -11 -8 -23 -17 -26 -10 -3 -25 -9 -33 -13 -8 -4 -93 -32
-189 -61 -178 -54 -201 -56 -209 -17 -2 11 6 18 25 23 15 3 48 12 73 19 25 7
83 22 130 35 47 12 110 30 140 41 71 23 80 23 80 -1z m-490 -63 c0 -12 -271
-103 -485 -163 -33 -9 -73 -23 -90 -30 -31 -13 -199 -66 -248 -78 -26 -6 -28
-5 -25 21 3 25 9 29 83 49 240 65 293 80 435 125 153 47 293 86 318 88 6 1 12
-5 12 -12z m490 -143 c0 -96 -2 -105 -17 -100 -10 2 -43 8 -73 11 -59 7 -152
33 -216 60 -47 19 -49 18 101 75 213 82 205 84 205 -46z m-470 40 c0 -6 -46
-21 -102 -33 -282 -61 -328 -71 -391 -82 -37 -6 -71 -9 -74 -6 -3 3 35 18 83
32 49 15 172 53 274 85 l185 58 12 -21 c7 -12 12 -27 13 -33z m-920 -47 l0
-53 -82 -27 c-46 -14 -112 -33 -148 -42 -36 -9 -74 -22 -85 -29 -23 -15 -159
-31 -151 -18 3 5 81 46 173 91 92 45 188 92 213 105 72 38 80 35 80 -27z
m1115 -69 c71 -25 107 -33 243 -54 26 -4 32 -9 32 -29 l0 -25 -316 0 c-308 0
-316 1 -293 18 77 58 219 133 239 125 8 -3 51 -19 95 -35z m-655 -56 l-115
-46 -150 -4 c-98 -2 -147 0 -140 7 9 8 450 88 500 89 11 1 -32 -20 -95 -46z"/>
<path d="M4765 3039 c-174 -17 -452 -57 -620 -89 -27 -5 -86 -14 -130 -20 -44
-6 -186 -29 -315 -50 -129 -21 -266 -42 -303 -46 -42 -4 -74 -13 -84 -23 -16
-15 -15 -16 8 -19 13 -2 146 17 294 42 149 25 331 55 405 67 74 12 155 25 180
29 142 23 477 70 499 69 31 -1 25 -3 -54 -19 -33 -7 -82 -18 -110 -25 -27 -8
-75 -16 -105 -20 -30 -3 -95 -13 -145 -21 -49 -9 -119 -20 -155 -25 -36 -5
-78 -14 -95 -19 -16 -5 -91 -19 -165 -30 -74 -11 -157 -24 -185 -30 -27 -5
-84 -14 -125 -20 -207 -28 -303 -49 -323 -69 l-20 -20 65 2 c36 1 64 5 61 10
-2 4 9 7 26 7 16 0 42 5 58 12 15 6 64 17 108 23 116 18 390 63 460 76 33 6
105 20 160 30 55 10 150 25 210 34 61 8 137 21 170 29 33 8 85 19 115 25 118
25 231 64 228 80 -4 19 -8 20 -113 10z"/>
<path d="M3200 2362 c-95 -1 -157 -7 -161 -13 -3 -6 -5 -84 -4 -172 1 -89 3
-312 4 -494 l1 -333 545 0 545 0 0 505 0 505 -342 1 c-189 0 -363 1 -388 2
-25 1 -115 1 -200 -1z"/>
<path d="M500 885 l0 -465 495 0 495 0 0 465 0 465 -495 0 -495 0 0 -465z"/>
</g>
</svg>
